<?xml version="1.0" encoding="utf-8"?>
<!-- Generator: Adobe Illustrator 16.0.0, SVG Export Plug-In . SVG Version: 6.00 Build 0)  -->
<!DOCTYPE svg PUBLIC "-//W3C//DTD SVG 1.1//EN" "http://www.w3.org/Graphics/SVG/1.1/DTD/svg11.dtd">
<svg version="1.1" id="圖層_1" xmlns="http://www.w3.org/2000/svg" xmlns:xlink="http://www.w3.org/1999/xlink" x="0px" y="0px"
	 width="164.314px" height="31.066px" viewBox="0 0 164.314 31.066" enable-background="new 0 0 164.314 31.066"
	 xml:space="preserve">
<polygon fill="#FFFFFF" points="70.243,29.631 70.24,26.628 70.239,25.223 66.056,25.226 66.057,26.629 66.059,29.634 66.061,31.04 
	70.245,31.037 77.125,31.032 77.124,29.627 "/>
<polygon fill="#FFFFFF" points="44.079,28.873 44.078,27.466 44.077,26.645 44.076,25.24 39.895,25.244 39.896,26.648 
	39.896,27.471 31.665,27.476 31.666,26.655 31.665,25.249 27.479,25.252 27.479,26.658 27.48,27.479 27.482,28.885 27.482,31.066 
	31.668,31.063 31.667,29.659 31.666,28.882 39.896,28.877 39.896,29.652 39.897,31.057 44.082,31.055 44.081,29.649 "/>
<rect x="0.001" y="0.103" fill="#FFFFFF" width="36.585" height="5.834"/>
<polygon fill="#FFFFFF" points="52.958,28.866 60.953,28.861 60.951,27.453 52.957,27.459 52.956,26.639 60.95,26.634 
	60.949,25.229 52.955,25.232 48.771,25.237 48.772,26.643 48.772,27.463 48.774,28.87 48.775,29.646 48.776,31.051 52.961,31.047 
	60.953,31.043 60.954,29.637 52.959,29.643 "/>
<polygon fill="#FFFFFF" points="0.013,21.576 3.249,21.573 36.599,21.549 36.595,15.717 15.33,15.732 31.729,7.803 16.475,7.812 
	3.959,13.864 0.009,15.773 0.01,18.347 "/>
<polygon fill="#FFFFFF" points="84.105,15.684 84.109,21.517 93.289,21.51 111.762,21.498 120.941,21.492 120.938,15.658 
	120.93,5.864 120.926,0.03 111.746,0.037 111.752,5.871 111.757,15.664 93.285,15.678 93.278,5.885 93.273,0.049 84.094,0.056 
	84.1,5.89 "/>
<rect x="41.225" y="0.073" fill="#FFFFFF" width="36.848" height="5.603"/>
<rect x="41.232" y="8.055" transform="matrix(-1 6.770213e-004 -6.770213e-004 -1 101.2232 21.6786)" fill="#FFFFFF" width="18.752" height="5.603"/>
<polygon fill="#FFFFFF" points="155.656,0.008 137.702,0.019 126.537,0.027 126.54,5.629 137.707,5.621 155.66,5.609 164.304,5.604 
	164.3,0 "/>
<polygon fill="#FFFFFF" points="125.511,26.588 129.605,26.586 129.607,29.424 129.608,30.995 133.792,30.991 133.79,29.422 
	133.788,26.582 137.883,26.579 137.882,25.175 133.787,25.178 129.604,25.182 125.511,25.184 "/>
<polygon fill="#FFFFFF" points="126.548,15.885 126.551,21.488 137.718,21.48 155.671,21.467 164.314,21.461 164.31,15.856 
	164.309,13.578 164.305,7.977 155.662,7.982 137.708,7.996 126.542,8.003 126.545,13.604 137.713,13.598 155.665,13.584 
	155.667,15.864 137.713,15.877 "/>
<rect x="41.236" y="15.931" fill="#FFFFFF" width="36.846" height="5.603"/>
<polygon fill="#FFFFFF" points="105.201,26.604 105.202,25.197 103.802,25.199 101.02,25.201 99.617,25.201 97.566,26.607 
	93.411,29.453 89.254,26.614 87.198,25.209 85.8,25.211 83.014,25.214 81.613,25.214 81.614,26.618 81.618,29.622 81.619,31.029 
	85.803,31.025 85.802,29.619 85.801,27.115 89.464,29.618 91.321,30.887 91.52,31.021 95.308,31.02 95.506,30.883 97.36,29.611 
	101.02,27.104 101.022,29.61 101.023,31.015 105.206,31.012 105.204,29.607 "/>
<polygon fill="#FFFFFF" points="113.479,29.602 113.479,28.824 121.472,28.818 121.472,27.412 113.478,27.418 113.476,26.598 
	121.471,26.592 121.472,25.186 113.476,25.191 109.293,25.195 109.292,26.6 109.293,27.42 109.294,28.828 109.294,29.604 
	109.296,31.01 113.48,31.006 121.476,31 121.474,29.596 "/>
</svg>
